<mxfile host="app.diagrams.net" modified="2024-07-07T01:31:12.672Z" agent="Mozilla/5.0 (Windows NT 10.0; Win64; x64) AppleWebKit/537.36 (KHTML, like Gecko) Chrome/126.0.0.0 Safari/537.36" version="24.6.4" etag="laTKDXXNF2DRMPFDTm4A" type="github">
  <diagram name="Page-1" id="iVohcIXRhzn3qWJnwdFR">
    <mxGraphModel>
      <root>
        <mxCell id="0" />
        <mxCell id="1" parent="0" />
      </root>
    </mxGraphModel>
  </diagram>
</mxfile>
